<svg xmlns="http://www.w3.org/2000/svg" viewBox="0 0 2069.66 2069.65">
    <defs>
        <style>.cls-1{fill:#fff;}</style>
    </defs>
    <g id="Layer_2" data-name="Layer 2">
        <g id="Layer_1-2" data-name="Layer 1">
            <g id="lists">
                <rect class="cls-1" x="16" y="1756.84" width="2037.66" height="296.81" rx="59"/>
                <path d="M1994.66,1772.84a43,43,0,0,1,43,43v178.81a43,43,0,0,1-43,43H75a43,43,0,0,1-43-43V1815.84a43,43,0,0,1,43-43H1994.66m0-32H75a75,75,0,0,0-75,75v178.81a75,75,0,0,0,75,75H1994.66a75,75,0,0,0,75-75V1815.84a75,75,0,0,0-75-75Z"/>
                <rect class="cls-1" x="16" y="1321.63" width="2037.66" height="296.81" rx="59"/>
                <path d="M1994.66,1337.63a43,43,0,0,1,43,43v178.81a43,43,0,0,1-43,43H75a43,43,0,0,1-43-43V1380.63a43,43,0,0,1,43-43H1994.66m0-32H75a75,75,0,0,0-75,75v178.81a75,75,0,0,0,75,75H1994.66a75,75,0,0,0,75-75V1380.63a75,75,0,0,0-75-75Z"/>
                <rect class="cls-1" x="16" y="886.42" width="2037.66" height="296.81" rx="59"/>
                <path d="M1994.66,902.42a43,43,0,0,1,43,43v178.81a43,43,0,0,1-43,43H75a43,43,0,0,1-43-43V945.42a43,43,0,0,1,43-43H1994.66m0-32H75a75,75,0,0,0-75,75v178.81a75,75,0,0,0,75,75H1994.66a75,75,0,0,0,75-75V945.42a75,75,0,0,0-75-75Z"/>
                <rect x="16" y="16" width="2037.66" height="732.02" rx="59"/>
                <path d="M1994.66,32a43,43,0,0,1,43,43V689a43,43,0,0,1-43,43H75a43,43,0,0,1-43-43V75A43,43,0,0,1,75,32H1994.66m0-32H75A75,75,0,0,0,0,75V689a75,75,0,0,0,75,75H1994.66a75,75,0,0,0,75-75V75a75,75,0,0,0-75-75Z"/>
            </g>
        </g>
    </g>
</svg>
