<svg xmlns="http://www.w3.org/2000/svg" viewBox="0 0 3000 3000">
                <rect class="cls-1" width="3000" height="3000"/>
                <rect class="cls-1" x="481.17" y="2222.02" width="2037.66" height="296.81" rx="59"/>
                <path d="M2459.83,2238a43,43,0,0,1,43,43v178.81a43,43,0,0,1-43,43H540.17a43,43,0,0,1-43-43V2281a43,43,0,0,1,43-43H2459.83m0-32H540.17a75,75,0,0,0-75,75v178.81a75,75,0,0,0,75,75H2459.83a75,75,0,0,0,75-75V2281a75,75,0,0,0-75-75Z"/>
                <rect class="cls-1" x="481.17" y="1786.81" width="2037.66" height="296.81" rx="59"/>
                <path d="M2459.83,1802.81a43,43,0,0,1,43,43v178.81a43,43,0,0,1-43,43H540.17a43,43,0,0,1-43-43V1845.81a43,43,0,0,1,43-43H2459.83m0-32H540.17a75,75,0,0,0-75,75v178.81a75,75,0,0,0,75,75H2459.83a75,75,0,0,0,75-75V1845.81a75,75,0,0,0-75-75Z"/>
                <rect class="cls-1" x="481.17" y="1351.59" width="2037.66" height="296.81" rx="59"/>
                <path d="M2459.83,1367.59a43,43,0,0,1,43,43v178.82a43,43,0,0,1-43,43H540.17a43,43,0,0,1-43-43V1410.59a43,43,0,0,1,43-43H2459.83m0-32H540.17a75,75,0,0,0-75,75v178.82a75,75,0,0,0,75,75H2459.83a75,75,0,0,0,75-75V1410.59a75,75,0,0,0-75-75Z"/>
                <rect x="481.17" y="481.18" width="2037.66" height="732.02" rx="59"/>
                <path d="M2459.83,497.18a43,43,0,0,1,43,43v614a43,43,0,0,1-43,43H540.17a43,43,0,0,1-43-43v-614a43,43,0,0,1,43-43H2459.83m0-32H540.17a75,75,0,0,0-75,75v614a75,75,0,0,0,75,75H2459.83a75,75,0,0,0,75-75v-614a75,75,0,0,0-75-75Z"/>
</svg>
